<svg width="21" height="20" viewBox="0 0 21 20" fill="none" xmlns="http://www.w3.org/2000/svg">
<path d="M14.6784 2.34375C15.0357 2.34375 15.3658 2.53435 15.5444 2.84375L19.3897 9.50401C19.5684 9.81341 19.5684 10.1946 19.3897 10.504L15.5444 17.1643C15.3658 17.4737 15.0357 17.6643 14.6784 17.6643L6.98781 17.6643C6.63054 17.6643 6.30041 17.4737 6.12178 17.1643L2.27648 10.504C2.09785 10.1946 2.09785 9.81341 2.27648 9.504L6.12178 2.84375C6.30041 2.53435 6.63054 2.34375 6.98781 2.34375L14.6784 2.34375Z" stroke="#E0DBD2" stroke-width="2"/>
<path d="M11.9132 7.12711C12.2705 7.12711 12.6006 7.31771 12.7792 7.62711L13.8602 9.49949C14.0389 9.80889 14.0389 10.1901 13.8602 10.4995L12.7792 12.3719C12.6006 12.6813 12.2705 12.8719 11.9132 12.8719L9.75116 12.8719C9.39389 12.8719 9.06376 12.6813 8.88513 12.3719L7.80412 10.4995C7.62548 10.1901 7.62548 9.80889 7.80412 9.49949L8.88513 7.62711C9.06376 7.31771 9.39389 7.12711 9.75116 7.12711L11.9132 7.12711Z" fill="#E0DBD2"/>
</svg>
