<svg width="21" height="20" viewBox="0 0 21 20" fill="none" xmlns="http://www.w3.org/2000/svg">
<path fill-rule="evenodd" clip-rule="evenodd" d="M10.4268 19.8125C15.7339 19.8125 20.0361 15.5102 20.0361 10.2031C20.0361 4.89601 15.7339 0.59375 10.4268 0.59375C5.11965 0.59375 0.817383 4.89601 0.817383 10.2031C0.817383 15.5102 5.11965 19.8125 10.4268 19.8125ZM14.2825 5.9205C14.3923 5.08982 13.493 4.50056 12.7752 4.93284L9.45273 6.93375C8.14961 7.71853 7.27463 9.05385 7.07533 10.5619L6.56719 14.407C6.45741 15.2377 7.35667 15.8269 8.07446 15.3946L11.397 13.3937C12.7001 12.609 13.5751 11.2736 13.7744 9.76556L14.2825 5.9205Z" fill="#E2B578"/>
<path d="M11.4268 10.2031C11.4268 10.7554 10.979 11.2031 10.4268 11.2031C9.87447 11.2031 9.42676 10.7554 9.42676 10.2031C9.42676 9.65084 9.87447 9.20312 10.4268 9.20312C10.979 9.20312 11.4268 9.65084 11.4268 10.2031Z" fill="#E2B578"/>
</svg>
