<svg width="24" height="29" viewBox="0 0 24 29" fill="none" xmlns="http://www.w3.org/2000/svg">
<path d="M22.7269 14.1839C21.266 10.8281 19.7557 9.00778 19.2149 7.5535C18.6401 6.00783 19.2069 4.69144 19.2069 4.69144C18.0077 4.4516 17.1163 5.59623 16.4434 6.75737C16.027 7.47585 15.4832 11.8309 14.6317 12.9001C14.4867 13.0822 14.1987 13.0377 14.1178 12.8194C11.2093 4.9653 12.7686 0.761719 12.7686 0.761719C8.19338 2.48845 7.05492 6.95522 6.83743 7.64671C6.41727 8.98261 6.59494 14.0622 6.59494 14.0622C6.57687 14.4095 6.10481 14.499 5.96091 14.1824C5.96091 14.1824 4.75523 11.2104 4.61494 9.57939C4.50007 8.24426 4.49035 8.52238 4.49035 8.52238C2.41796 10.4387 0.117188 14.7783 0.117188 17.6934C0.117188 23.5477 5.28185 28.2936 11.6528 28.2936C18.0237 28.2936 23.1884 23.5477 23.1884 17.6934C23.1884 16.4445 23.1884 15.2443 22.7269 14.1839Z" fill="#E2B578"/>
</svg>
