<svg width="19" height="19" viewBox="0 0 19 19" fill="none" xmlns="http://www.w3.org/2000/svg">
<g clip-path="url(#clip0_2152_26800)">
<path fill-rule="evenodd" clip-rule="evenodd" d="M5.06718 5.19072C4.38386 5.19072 3.82992 5.74465 3.82992 6.42797V15.3362C3.82992 16.0195 4.38386 16.5735 5.06718 16.5735H13.9754C14.6587 16.5735 15.2127 16.0195 15.2127 15.3362V9.39738C15.2127 8.98739 15.545 8.65503 15.955 8.65503C16.365 8.65503 16.6974 8.98739 16.6974 9.39738V15.3362C16.6974 16.8395 15.4787 18.0582 13.9754 18.0582H5.06718C3.56388 18.0582 2.34521 16.8395 2.34521 15.3362V6.42797C2.34521 4.92467 3.56388 3.70601 5.06718 3.70601H11.9958C12.4058 3.70601 12.7382 4.03837 12.7382 4.44836C12.7382 4.85835 12.4058 5.19072 11.9958 5.19072H5.06718Z" fill="#73706E"/>
<path fill-rule="evenodd" clip-rule="evenodd" d="M7.81916 12.884C7.52925 12.5941 7.52925 12.124 7.81916 11.8341L16.8578 2.79552C17.1477 2.50561 17.6177 2.50561 17.9076 2.79552C18.1975 3.08543 18.1975 3.55546 17.9076 3.84536L8.869 12.884C8.5791 13.1739 8.10906 13.1739 7.81916 12.884Z" fill="#73706E"/>
<path d="M18.3278 2.98289C18.4264 2.6149 18.0897 2.27816 17.7217 2.37676L14.3881 3.27C14.0201 3.3686 13.8969 3.82859 14.1663 4.09798L16.6066 6.53834C16.876 6.80773 17.336 6.68447 17.4346 6.31648L18.3278 2.98289Z" fill="#73706E"/>
</g>
<defs>
<clipPath id="clip0_2152_26800">
<rect width="18" height="18" fill="white" transform="translate(0.89209 0.859375)"/>
</clipPath>
</defs>
</svg>
