<svg width="21" height="21" viewBox="0 0 21 21" fill="none" xmlns="http://www.w3.org/2000/svg">
<path d="M10.8843 1.85156C6.0542 1.84961 2.14209 5.75977 2.14209 10.5859C2.14209 14.4023 4.58936 17.6465 7.99756 18.8379C8.45654 18.9531 8.38623 18.6269 8.38623 18.4043V16.8906C5.73584 17.2012 5.62842 15.4473 5.45068 15.1543C5.09131 14.541 4.2417 14.3848 4.49561 14.0918C5.09912 13.7812 5.71436 14.1699 6.42725 15.2227C6.94287 15.9863 7.94873 15.8574 8.4585 15.7305C8.56983 15.2715 8.80811 14.8613 9.13623 14.543C6.39014 14.0508 5.24561 12.375 5.24561 10.3828C5.24561 9.41601 5.56397 8.52734 6.18897 7.81055C5.79053 6.62891 6.22608 5.61719 6.28467 5.4668C7.41944 5.36523 8.59912 6.2793 8.69092 6.35156C9.33545 6.17773 10.0718 6.08594 10.896 6.08594C11.7241 6.08594 12.4624 6.18164 13.1128 6.35742C13.3335 6.18945 14.4272 5.4043 15.4819 5.5C15.5386 5.65039 15.9644 6.63867 15.5894 7.80469C16.2222 8.52344 16.5444 9.41992 16.5444 10.3887C16.5444 12.3848 15.3921 14.0625 12.6382 14.5469C13.0972 15 13.3823 15.6289 13.3823 16.3242V18.5215C13.398 18.6973 13.3823 18.8711 13.6753 18.8711C17.1343 17.7051 19.6245 14.4375 19.6245 10.5879C19.6245 5.75976 15.7105 1.85156 10.8843 1.85156Z" fill="white"/>
</svg>
