<svg width="41" height="41" viewBox="0 0 41 41" fill="none" xmlns="http://www.w3.org/2000/svg">
<path d="M29.1776 2.70312L33.3738 6.90102L27.7377 12.537C25.8219 14.4546 23.2852 15.425 20.7735 15.4216C18.2634 15.425 15.725 14.4546 13.8091 12.537L8.17309 6.90102L12.3694 2.70312L18.0054 8.33915C18.7777 9.10816 19.7614 9.48267 20.7718 9.486C21.7821 9.48267 22.7659 9.10982 23.5382 8.33915L29.1742 2.70312H29.1776ZM38.7751 29.1056L33.1391 23.4695C32.3701 22.6972 31.9972 21.7135 31.9939 20.7031C31.9972 19.6911 32.3701 18.7074 33.1391 17.9367L38.7751 12.3007L34.5789 8.10279L28.9428 13.7388C27.0253 15.6547 26.0549 18.193 26.0583 20.7031C26.0549 23.2132 27.0253 25.7516 28.9428 27.6658L34.5789 33.3018L38.7768 29.1056H38.7751ZM12.371 38.7031L18.007 33.0671C18.7794 32.2964 19.7614 31.9236 20.7735 31.9203C21.7838 31.9236 22.7675 32.2964 23.5398 33.0671L29.1759 38.7031L33.3738 34.5052L27.7377 28.8692C25.8219 26.9517 23.2852 25.9813 20.7735 25.9846C18.2634 25.9813 15.725 26.9517 13.8091 28.8692L8.17309 34.5052L12.371 38.7031ZM2.77344 12.3007L8.40948 17.9367C9.17848 18.709 9.55131 19.6928 9.55464 20.7031C9.55131 21.7135 9.17848 22.6972 8.40948 23.4695L2.77344 29.1056L6.97132 33.3035L12.6074 27.6674C14.5249 25.7516 15.4953 23.2149 15.492 20.7048C15.4953 18.1947 14.5249 15.6563 12.6074 13.7405L6.97132 8.10446L2.77344 12.3023V12.3007Z" fill="#E2B578"/>
<rect x="16.0361" y="20.7031" width="6.70168" height="6.70168" rx="2" transform="rotate(-45 16.0361 20.7031)" fill="#FBE5C3"/>
</svg>
