<svg width="41" height="41" viewBox="0 0 41 41" fill="none" xmlns="http://www.w3.org/2000/svg">
<path fill-rule="evenodd" clip-rule="evenodd" d="M35.8975 17.007C37.3591 17.276 38.5571 18.4373 38.861 19.892C39.3692 22.3263 37.525 24.4691 35.1815 24.4691C33.4491 24.4691 31.9944 23.2991 31.5561 21.7064H29.8779C27.4732 21.7064 26.27 24.614 27.9692 26.3132L29.1654 27.5094C30.5991 26.6974 32.4502 26.8877 33.6727 28.1102C35.3317 29.7692 35.1186 32.593 33.0318 33.9516C31.7849 34.7619 30.1171 34.7322 28.8947 33.887C27.1955 32.71 26.8288 30.5515 27.7491 28.9239L26.5529 27.7277C24.852 26.0285 21.9461 27.2318 21.9461 29.6364V31.3146C23.5387 31.7547 24.7088 33.2094 24.7088 34.94C24.7088 37.2836 22.5643 39.1277 20.1317 38.6178C18.677 38.3139 17.5157 37.1177 17.2467 35.656C16.8713 33.6215 18.1356 31.8141 19.9431 31.3146V29.6364C19.9431 27.2318 17.0354 26.0285 15.3363 27.7277L14.14 28.9239C14.9521 30.3577 14.7617 32.2088 13.5393 33.4312C11.8803 35.0902 9.0565 34.8754 7.69786 32.7903C6.88582 31.5434 6.91551 29.8757 7.76073 28.6532C8.936 26.9541 11.0962 26.5856 12.7238 27.5077L13.92 26.3114C15.6192 24.6105 14.416 21.7047 12.0113 21.7047H10.3331C9.89299 23.2973 8.4383 24.4673 6.7077 24.4673C4.36413 24.4673 2.52002 22.3228 3.0282 19.8902C3.3338 18.4373 4.53003 17.276 5.9917 17.0053C8.02617 16.6298 9.83361 17.8941 10.3331 19.7016H12.0113C14.4142 19.7016 15.6192 16.794 13.9183 15.0948L12.722 13.8986C11.2866 14.7106 9.43719 14.5203 8.21477 13.2978C6.55576 11.6406 6.76882 8.81504 8.85567 7.4564C10.1025 6.64611 11.7703 6.67577 12.9927 7.52099C14.6919 8.69627 15.0586 10.8565 14.1383 12.4841L15.3345 13.6803C17.0354 15.3812 19.9413 14.1762 19.9413 11.7733V10.0934C18.3487 9.65329 17.1786 8.1986 17.1786 6.468C17.1786 4.12269 19.3231 2.27856 21.7558 2.78849C23.2104 3.09235 24.3717 4.29032 24.6407 5.75199C25.0161 7.7882 23.7518 9.59392 21.9444 10.0934V11.7733C21.9444 14.1762 24.852 15.3794 26.5512 13.6803L27.7474 12.4841C26.9353 11.0503 27.1257 9.19923 28.3481 7.9768C30.0071 6.3178 32.8309 6.53258 34.1896 8.61769C35.0016 9.86456 34.9719 11.5323 34.1267 12.7548C32.9514 14.4539 30.793 14.8206 29.1654 13.9003L27.9692 15.0966C26.27 16.7957 27.4732 19.7033 29.8779 19.7033H31.5561C32.0538 17.8959 33.863 16.6316 35.8975 17.007ZM20.9453 25.4082C23.5433 25.4082 25.6494 23.3021 25.6494 20.7041C25.6494 18.1061 23.5433 16 20.9453 16C18.3473 16 16.2412 18.1061 16.2412 20.7041C16.2412 23.3021 18.3473 25.4082 20.9453 25.4082Z" fill="#E2B578"/>
<circle cx="20.9453" cy="20.7021" r="3.62402" fill="#FBE5C3"/>
</svg>
