<svg width="41" height="41" viewBox="0 0 41 41" fill="none" xmlns="http://www.w3.org/2000/svg">
<g clip-path="url(#clip0_2630_31663)">
<path d="M22.2981 10.7425C21.5171 11.5235 20.2508 11.5235 19.4697 10.7425L13.874 5.14679C13.093 4.36574 11.8266 4.36574 11.0456 5.14679L5.38876 10.8036C4.60771 11.5847 4.60771 12.851 5.38876 13.632L10.9844 19.2277C11.7655 20.0088 11.7655 21.2751 10.9844 22.0562L5.32758 27.713C4.54653 28.4941 4.54653 29.7604 5.32758 30.5414L11.1068 36.3206C11.8878 37.1017 13.1542 37.1017 13.9352 36.3206L19.5921 30.6638C20.3731 29.8827 21.6394 29.8827 22.4205 30.6638L28.0162 36.2595C28.7972 37.0405 30.0636 37.0405 30.8446 36.2595L36.5014 30.6026C37.2825 29.8216 37.2825 28.5553 36.5014 27.7742L30.9058 22.1785C30.1247 21.3975 30.1247 20.1311 30.9058 19.3501L36.5626 13.6932C37.3437 12.9122 37.3437 11.6459 36.5626 10.8648L30.7834 5.0856C30.0024 4.30455 28.736 4.30455 27.955 5.0856L22.2981 10.7425ZM27.8938 19.1666C28.6749 19.9476 28.6749 21.214 27.8938 21.995L22.237 27.6518C21.4559 28.4329 20.1896 28.4329 19.4086 27.6518L13.9977 22.241C13.2166 21.4599 13.2166 20.1936 13.9977 19.4126L19.6545 13.7557C20.4356 12.9747 21.7019 12.9747 22.483 13.7557L27.8938 19.1666Z" fill="#E2B578"/>
<circle cx="20.9453" cy="20.7031" r="4" fill="#FBE5C3"/>
</g>
<defs>
<clipPath id="clip0_2630_31663">
<rect width="40" height="40" fill="white" transform="translate(0.945312 0.703125)"/>
</clipPath>
</defs>
</svg>
