<svg width="41" height="41" viewBox="0 0 41 41" fill="none" xmlns="http://www.w3.org/2000/svg">
<path d="M12.0201 20.8082C9.86866 17.8552 7.77878 15.2098 5.93472 12.3798C4.82828 10.6572 3.90621 8.8116 3.29153 6.84293C2.43096 3.8284 4.15206 2.10583 7.10256 3.09017C9.31544 3.82842 11.4054 4.93578 13.3724 6.22772C15.9541 7.88878 18.2899 9.85748 20.9331 11.8261C21.6092 11.334 22.2854 10.7803 23.023 10.2881C26.3423 8.07337 29.6002 5.79707 32.981 3.76688C34.5177 2.84407 36.4847 1.98277 38.0829 3.64383C39.6196 5.24338 38.7591 7.27358 37.8985 8.8116C36.1159 11.8877 34.0874 14.8406 32.1204 17.7936C31.4443 18.778 30.6451 19.7008 29.7846 20.7467C30.6451 21.8541 31.4443 22.7769 32.1204 23.7612C33.8416 26.1605 35.5627 28.6213 37.0994 31.1437C37.7755 32.2511 38.3288 33.543 38.6361 34.835C39.3737 37.7264 37.8985 39.2029 34.948 38.5262C33.6571 38.2186 32.3663 37.7265 31.2598 37.0497C28.6167 35.3271 26.035 33.4815 23.4533 31.6974C22.6542 31.1437 21.8551 30.467 20.9331 29.7287C20.011 30.4055 19.2734 31.0822 18.4128 31.6359C15.7082 33.4815 13.0651 35.4502 10.299 37.1727C9.19255 37.8495 7.9017 38.3417 6.61086 38.5878C3.84476 39.1414 2.30805 37.6649 3.16862 34.958C3.90624 32.6817 5.07412 30.467 6.36497 28.3753C8.14756 25.7299 10.1145 23.3305 12.0201 20.8082ZM20.8101 14.1639C18.5973 16.3787 16.5073 18.5319 14.4788 20.6236C16.7532 23.0845 18.7817 25.1762 20.9946 27.5755C23.3304 25.1762 25.4203 23.0845 27.6946 20.8082C25.912 18.9626 24.4368 17.4245 22.9001 15.948C22.3469 15.3328 21.6707 14.9022 20.8101 14.1639ZM13.3724 22.1617C7.96317 27.2679 4.39798 33.6661 5.07414 36.9267C8.63933 36.9882 15.2779 33.1124 19.2734 28.6214C17.3064 26.4681 15.3394 24.3149 13.3724 22.1617ZM29.047 22.3462C26.7726 24.4994 24.6212 26.4681 22.3469 28.6214C26.2194 31.8204 29.9075 35.0195 34.6406 36.7421C35.3168 36.9882 36.1774 36.8036 36.9765 36.8651C36.9765 36.0038 37.2838 35.0811 36.9765 34.2813C35.2554 29.6057 32.059 25.9144 29.047 22.3462ZM19.7652 12.872C17.5523 11.1494 15.5853 9.54985 13.4953 8.07335C12.0201 7.02749 10.4219 6.10468 8.76227 5.3049C7.53289 4.68969 6.24205 3.88993 4.45945 5.12035C5.62736 10.9648 9.56138 15.0867 13.0036 19.3317C15.3394 17.1169 17.3679 15.1482 19.7652 12.872ZM28.924 19.4547C32.3663 14.9637 36.4232 10.9033 37.4682 4.9973C33.903 4.19753 27.8176 7.5812 22.5313 13.0566C24.5598 15.0868 26.6497 17.1169 28.924 19.4547Z" fill="#E2B578"/>
<path d="M12.9426 31.8161C11.16 31.7545 9.93066 30.5241 9.93066 28.6785C9.93066 26.9559 11.283 25.6024 13.0041 25.5409C14.8482 25.4794 16.2619 26.9559 16.2005 28.863C16.0775 30.7087 14.7866 31.8776 12.9426 31.8161Z" fill="#E2B578"/>
<path d="M28.7394 31.817C26.9568 31.817 25.666 30.4635 25.6045 28.7409C25.6045 27.0184 26.9568 25.6033 28.6779 25.6033C30.4605 25.5418 32.0587 27.0798 31.9972 28.8639C31.9357 30.525 30.522 31.817 28.7394 31.817Z" fill="#E2B578"/>
<path d="M13.0041 9.79688C14.7252 9.79688 16.139 11.1503 16.2005 12.8729C16.2619 14.5955 14.971 16.072 13.2499 16.1951C11.4673 16.3181 9.93066 14.8416 9.93066 12.996C9.93066 11.2119 11.283 9.79688 13.0041 9.79688Z" fill="#E2B578"/>
<path d="M31.9971 12.9284C31.9971 14.5894 30.5218 16.0659 28.9236 16.1275C27.264 16.189 25.7273 14.774 25.6658 13.1129C25.5429 11.3288 27.1411 9.72926 28.8622 9.79078C30.5218 9.79078 31.9971 11.3288 31.9971 12.9284Z" fill="#E2B578"/>
<path fill-rule="evenodd" clip-rule="evenodd" d="M28.4523 20.9774L21.205 13.1797L13.4072 20.4271L20.6546 28.2248L28.4523 20.9774ZM16.6395 20.7437C16.722 23.0552 18.4541 24.8713 20.846 24.8713C23.2379 24.8713 25.1349 23.1377 25.2174 20.9088C25.2999 18.5148 23.1555 16.4511 20.7636 16.5336C18.4541 16.5336 16.6395 18.4323 16.6395 20.7437Z" fill="#E2B578"/>
<path d="M20.8691 23.7225C19.1382 23.7225 17.8849 22.4083 17.8252 20.7357C17.8252 19.0632 19.1383 17.6892 20.8094 17.6892C22.5403 17.6295 24.092 19.1229 24.0323 20.8552C23.9726 22.468 22.5999 23.7225 20.8691 23.7225Z" fill="#FBE5C3"/>
</svg>
