<svg width="41" height="41" viewBox="0 0 41 41" fill="none" xmlns="http://www.w3.org/2000/svg">
<path d="M2.07617 20.7022C3.75047 19.772 5.0992 19.1674 6.30842 18.3303C6.95953 17.9117 7.61066 17.2141 7.88971 16.5164C9.37798 12.7493 11.936 10.1448 15.7031 8.74955C16.6798 8.37749 17.2379 7.8659 17.7029 6.98224C18.3541 5.68001 19.0982 4.4243 20.0284 2.75C20.912 4.28477 21.6562 5.49398 22.3073 6.7497C22.8189 7.77289 23.5165 8.42401 24.6327 8.79608C28.1673 10.0983 30.6788 12.5632 32.0275 16.0514C32.5391 17.3071 33.2832 18.0977 34.4459 18.6558C35.5621 19.2139 36.5853 19.8185 38.0736 20.6557C36.5388 21.4928 35.4226 22.237 34.2134 22.7951C33.2367 23.2602 32.6786 23.9113 32.3066 24.981C31.0043 28.8877 28.3534 31.5851 24.4467 32.9804C23.2374 33.399 22.5398 34.1431 21.9817 35.2128C21.4702 36.236 20.8656 37.2127 20.0749 38.6544C19.2378 37.1662 18.5401 36.0034 17.9355 34.8407C17.4704 33.9571 16.8658 33.4455 15.9357 33.1199C11.9825 31.7247 9.23845 29.0272 7.88971 25.0275C7.56415 24.0043 6.95955 23.3067 5.98288 22.8416C4.77366 22.2835 3.65745 21.5859 2.07617 20.7022ZM31.7485 22.8416C31.7485 21.8184 31.702 20.7952 31.7485 19.8186C31.795 18.8419 31.3764 18.1908 30.4462 17.8652C26.8651 16.5165 24.4002 14.0515 22.9584 10.4704C22.7724 9.95878 22.1677 9.4472 21.6562 9.26116C19.5168 8.51703 17.6099 9.16814 16.7263 11.261C15.4706 14.191 13.4707 16.2374 10.4942 17.4001C10.2616 17.4931 10.0756 17.6327 9.88959 17.7257C8.2618 18.2373 8.3548 19.6325 8.3083 20.9347C8.26179 22.1905 8.49435 23.2137 9.84309 23.6787C13.3777 24.981 15.7496 27.4924 17.0984 30.9805C17.61 32.3758 18.6331 32.7478 20.0284 32.7013C21.3771 32.7013 22.4003 32.3758 23.0049 30.9805C23.47 29.9109 24.1676 28.9807 24.6327 27.911C25.1908 26.6553 26.121 25.8181 27.3767 25.2135C28.8185 24.5159 30.2137 23.6787 31.7485 22.8416ZM31.1439 24.8879C27.2372 25.9111 25.1908 28.19 24.1211 31.9572C27.5162 30.5155 29.7021 28.3761 31.1439 24.8879ZM15.8426 31.7712C14.9125 27.8645 12.6335 25.5856 9.09891 25.1205C10.4942 28.3296 12.5405 30.5619 15.8426 31.7712ZM31.0044 16.4699C29.4696 13.3074 27.5162 11.2145 24.4002 10.0053C25.3303 13.4934 27.3767 15.4468 31.0044 16.4699ZM9.19196 16.4699C12.7731 15.4003 14.866 13.4469 15.7496 10.0053C12.5871 11.261 10.6337 13.3074 9.19196 16.4699ZM20.0284 5.07542C19.4238 6.28463 19.0982 7.02875 18.6797 7.81939C19.7029 7.81939 20.4935 7.81939 21.5632 7.81939C21.0516 6.93573 20.633 6.23812 20.0284 5.07542ZM19.0052 33.864C19.1447 34.7942 19.4238 35.4453 20.3075 35.9569C20.633 35.2128 20.9121 34.6082 21.2376 33.864C20.4005 33.864 19.7028 33.864 19.0052 33.864ZM33.0972 19.2604C33.0972 20.3766 33.0972 21.0743 33.0972 22.0974C33.9809 21.5859 34.632 21.2138 35.5622 20.6557C34.5855 20.1441 33.9809 19.772 33.0972 19.2604ZM6.95954 22.0509C6.95954 20.9813 6.95954 20.2836 6.95954 19.3535C6.12239 19.8186 5.51779 20.1906 4.63413 20.7022C5.47128 21.2138 6.12239 21.5394 6.95954 22.0509Z" fill="#E2B578"/>
<path d="M20.1765 25.9217C17.3219 25.9736 15.0381 23.7937 14.9862 20.9909C14.9343 18.24 17.218 15.9044 20.0208 15.8525C22.8755 15.8006 25.1592 17.9805 25.2111 20.7833C25.2111 23.5342 22.9793 25.8698 20.1765 25.9217Z" fill="#FBE5C3"/>
</svg>
