<svg width="40" height="41" viewBox="0 0 40 41" fill="none" xmlns="http://www.w3.org/2000/svg">
<path d="M7.925 15.0253C7.925 12.5536 8.89739 10.183 10.6284 8.43486C12.3593 6.68673 14.7072 5.70413 17.1556 5.70312H17.1781V8.29441H17.1556C15.3882 8.29691 13.694 9.00692 12.4444 10.2687C11.1948 11.5305 10.492 13.2411 10.49 15.0253V15.084H13.6231L9.31625 19.4242L5 15.0802H7.92688C7.92688 15.0594 7.92688 15.0367 7.92313 15.0234L7.925 15.0253ZM32.0731 25.381C32.0731 27.8533 31.1002 30.2245 29.3684 31.9727C27.6367 33.721 25.2879 34.7031 22.8388 34.7031H22.82V32.1118H22.8388C24.6065 32.1098 26.3012 31.4001 27.5512 30.1382C28.8012 28.8763 29.5043 27.1655 29.5063 25.381V25.3223H26.375L30.6875 20.9782L35 25.3223H32.0731V25.381Z" fill="#FBE5C3"/>
<path d="M31.6604 5.70312C33.5022 5.70312 34.9944 7.25722 34.9963 9.16681L35 15.2375C35 17.151 33.506 18.7031 31.666 18.7031H23.334C21.4921 18.7031 20 17.151 20 15.2375V9.16681C20 7.25528 21.4921 5.70312 23.334 5.70312H31.6604Z" fill="#E2B578"/>
<path d="M16.6604 22.7031C18.5022 22.7031 19.9944 24.2572 19.9963 26.1668L20 32.2375C20 34.151 18.506 35.7031 16.666 35.7031H8.33396C6.49215 35.7031 5 34.151 5 32.2375V26.1668C5 24.2553 6.49215 22.7031 8.33396 22.7031H16.6604Z" fill="#E2B578"/>
</svg>
