<svg width="40" height="41" viewBox="0 0 40 41" fill="none" xmlns="http://www.w3.org/2000/svg">
<path d="M24.5407 7.25C22.947 7.25 21.4186 7.52753 20 8.03576C18.5814 7.52753 17.053 7.25 15.4593 7.25C8.02589 7.25 2.00123 13.2759 2 20.7093C2 28.1427 8.02589 34.1674 15.4593 34.1674C17.053 34.1674 18.5814 33.8898 20 33.3816C21.4186 33.8898 22.947 34.1674 24.5407 34.1674C31.9741 34.1674 37.9988 28.1414 38 20.7093C38 13.2759 31.9741 7.25123 24.5407 7.25ZM15.4593 33.0683C12.0448 33.0683 8.95848 31.6855 6.71958 29.4478C4.48191 27.2089 3.10032 24.1225 3.09909 20.708C3.09909 17.2936 4.48191 14.2072 6.71958 11.9683C8.95848 9.73068 12.0436 8.34908 15.4593 8.34785C16.4856 8.34785 17.4823 8.47366 18.4359 8.70927C15.8836 10.0107 13.8014 12.1028 12.5123 14.6636C13.2734 13.8113 14.1924 13.1044 15.2237 12.5876C16.4474 11.9745 17.8265 11.6266 19.2882 11.6266C24.3039 11.6266 28.3684 15.6924 28.3684 20.708C28.3684 25.7237 24.3026 29.7895 19.2882 29.7895C17.8265 29.7895 16.4461 29.4416 15.2237 28.8285C14.1924 28.3117 13.2734 27.6048 12.5123 26.7525C13.8014 29.3133 15.8836 31.4054 18.4359 32.7068C17.4823 32.9424 16.4856 33.0683 15.4593 33.0683Z" fill="#E2B578"/>
<path d="M19.2874 15.2656C16.2812 15.2656 13.8438 17.7031 13.8438 20.7093C13.8438 23.7155 16.2812 26.153 19.2874 26.153C22.2936 26.153 24.7311 23.7155 24.7311 20.7093C24.7311 17.7031 22.2936 15.2656 19.2874 15.2656Z" fill="#FBE5C3"/>
</svg>
