<svg width="41" height="41" viewBox="0 0 41 41" fill="none" xmlns="http://www.w3.org/2000/svg">
<path d="M2.84961 20.6006C5.90157 15.3551 8.85817 10.2049 11.8624 5.05469C17.9664 5.05469 23.9749 5.05469 30.1265 5.05469C32.94 9.96644 35.7536 14.8305 38.5671 19.6945C38.9963 20.4099 38.9009 21.0298 38.5194 21.6974C35.8966 26.2277 33.2739 30.7579 30.6988 35.2882C30.2696 36.0512 29.6496 36.385 28.7436 36.3373C23.5934 36.2896 18.4432 36.3373 13.2453 36.2896C12.6254 36.2896 11.7671 35.9081 11.4809 35.4312C8.52434 30.5195 5.71082 25.5601 2.84961 20.6006ZM20.8752 32.6177C22.6873 32.6177 24.5471 32.57 26.3592 32.6177C27.456 32.6654 28.1237 32.2839 28.6482 31.3302C30.4126 28.1351 32.2247 24.9878 34.1322 21.8405C34.7045 20.8867 34.6568 20.1237 34.0845 19.2177C32.2724 16.1657 30.4603 13.0661 28.7436 9.96641C28.1713 8.91729 27.456 8.53584 26.2639 8.58353C22.6874 8.63122 19.1108 8.63122 15.582 8.58353C14.5329 8.58353 13.8176 8.91732 13.2931 9.87105C11.5286 13.0661 9.71653 16.2134 7.85674 19.3608C7.37987 20.2191 7.2845 20.8867 7.80906 21.7451C9.71654 24.9401 11.5763 28.1828 13.3884 31.4255C13.8653 32.2839 14.4852 32.6654 15.4866 32.6177C17.2511 32.57 19.0631 32.6177 20.8752 32.6177Z" fill="#FBE5C3"/>
<path d="M32.5798 20.6056C30.7658 23.7349 28.9971 26.7734 27.2737 29.8573C26.8656 30.5376 26.3213 30.719 25.5957 30.719C22.5118 30.719 19.4279 30.6737 16.3439 30.719C15.4823 30.719 14.938 30.4016 14.5299 29.6759C12.8065 26.6827 11.0832 23.6895 9.31445 20.6056C11.0832 17.5671 12.8065 14.5738 14.4845 11.5806C14.8927 10.855 15.4369 10.4922 16.2986 10.4922C19.3825 10.5375 22.4664 10.4922 25.5503 10.4922C26.276 10.4922 26.8655 10.6736 27.2283 11.3539C28.997 14.4378 30.8111 17.4764 32.5798 20.6056ZM17.1603 27.1363C19.3825 27.1363 21.4687 27.0909 23.6002 27.1363C24.4619 27.1363 25.0061 26.8641 25.4143 26.0931C26.2759 24.5058 27.2737 22.9639 28.09 21.3766C28.3168 20.9231 28.3168 20.1974 28.09 19.7439C27.2283 18.0659 26.2306 16.4786 25.3236 14.846C24.9608 14.1657 24.4619 13.8936 23.6909 13.939C21.6048 13.9843 19.4732 13.939 17.251 13.939C15.9811 16.1612 14.7113 18.338 13.4415 20.5603C14.666 22.8279 15.8905 24.9594 17.1603 27.1363Z" fill="#E2B578"/>
<path d="M18.7082 24.2685C17.9877 23.0335 17.293 21.8242 16.5469 20.5378C17.2673 19.277 17.9877 18.042 18.7082 16.7812C19.9689 16.7812 21.1782 16.7812 22.3617 16.7812C22.7991 16.7812 23.0822 16.9099 23.288 17.2958C23.8026 18.2221 24.3687 19.1226 24.8575 20.0746C24.9862 20.3319 24.9862 20.7436 24.8575 21.0009C24.3944 21.9014 23.8283 22.7762 23.3395 23.6767C23.1079 24.1141 22.7992 24.2685 22.3103 24.2685C21.1525 24.2685 19.9689 24.2685 18.7082 24.2685Z" fill="#FBE5C3"/>
</svg>
