<svg width="41" height="41" viewBox="0 0 41 41" fill="none" xmlns="http://www.w3.org/2000/svg">
<path d="M13.9298 11.1879C13.6099 11.6422 13.3135 12.1297 13.042 12.6464H16.4701C16.6156 11.9871 16.7776 11.3693 16.9563 10.8014C17.3718 9.47174 17.8815 8.39274 18.4605 7.64062C16.7194 8.18913 15.157 9.44401 13.9312 11.1892L13.9298 11.1879Z" fill="#E2B578"/>
<path d="M11.1719 21.1484C11.2287 23.6139 11.7481 25.9104 12.6124 27.8634H16.2884C15.9186 25.8855 15.697 23.5945 15.6735 21.1484H11.1733H11.1719Z" fill="#E2B578"/>
<path d="M12.6124 13.5391C11.7481 15.4921 11.2287 17.7886 11.1719 20.254H15.6721C15.6956 17.8079 15.9172 15.517 16.287 13.5391H12.611H12.6124Z" fill="#E2B578"/>
<path d="M24.3947 12.6478H27.8228C27.5514 12.1311 27.255 11.6449 26.935 11.1892C25.7078 9.44539 24.1454 8.18913 22.4043 7.64062C22.9833 8.39274 23.493 9.47174 23.9085 10.8014C24.0858 11.3707 24.2493 11.9884 24.3947 12.6464V12.6478Z" fill="#E2B578"/>
<path d="M30.5821 20.254H33.7886C33.7083 17.7886 32.9589 15.4907 31.7179 13.5391H29.2178C30.0378 15.5239 30.5294 17.8121 30.5821 20.254Z" fill="#FBE5C3"/>
<path d="M24.5742 27.8634H28.2503C29.1146 25.9104 29.634 23.6139 29.6908 21.1484H25.1906C25.167 23.5945 24.9454 25.8855 24.5756 27.8634H24.5742Z" fill="#E2B578"/>
<path d="M27.6622 10.6828C28.0874 11.2881 28.4738 11.9474 28.8173 12.6524H31.0986C30.7246 12.1579 30.3188 11.6912 29.8825 11.2535C28.6359 10.0069 27.1427 9.00682 25.4834 8.32812C26.2854 8.97358 27.0167 9.76725 27.6622 10.6828Z" fill="#FBE5C3"/>
<path d="M28.2503 13.5391H24.5742C24.944 15.5184 25.1656 17.8079 25.1892 20.254H29.6894C29.6326 17.7872 29.1132 15.4921 28.2489 13.5391H28.2503Z" fill="#E2B578"/>
<path d="M26.935 30.2149C27.2536 29.7606 27.5514 29.2731 27.8228 28.7578H24.3947C24.2493 29.4171 24.0872 30.0349 23.9085 30.6028C23.493 31.9325 22.9833 33.0115 22.4043 33.7636C24.1454 33.2151 25.7078 31.9602 26.935 30.2149Z" fill="#E2B578"/>
<path d="M27.6622 30.726C27.0181 31.643 26.2854 32.4366 25.4834 33.0807C27.1427 32.4034 28.6345 31.402 29.8825 30.1554C30.3188 29.7177 30.726 29.2509 31.0986 28.7578H28.8173C28.4738 29.4628 28.0874 30.1221 27.6622 30.7274V30.726Z" fill="#FBE5C3"/>
<path d="M29.2178 27.8634H31.7179C32.9589 25.9104 33.7083 23.6139 33.7886 21.1484H30.5821C30.5281 23.5904 30.0378 25.8799 29.2178 27.8634Z" fill="#FBE5C3"/>
<path d="M10.2817 21.1484H7.0752C7.15553 23.6139 7.90486 25.9118 9.14591 27.8634H11.646C10.826 25.8799 10.3343 23.5904 10.2817 21.1484Z" fill="#FBE5C3"/>
<path d="M13.2021 10.6828C13.8461 9.76586 14.5789 8.9722 15.3808 8.32812C13.7215 9.00544 12.2297 10.0069 10.9817 11.2535C10.5454 11.6912 10.1382 12.1579 9.76562 12.6524H12.0469C12.3904 11.9474 12.7768 11.2881 13.2021 10.6828Z" fill="#FBE5C3"/>
<path d="M16.4701 28.7578H13.042C13.3135 29.2745 13.6099 29.7606 13.9298 30.2149C15.157 31.9602 16.718 33.2165 18.4591 33.7636C17.8801 33.0115 17.3704 31.9325 16.9549 30.6028C16.7776 30.0335 16.6142 29.4157 16.4687 28.7578H16.4701Z" fill="#E2B578"/>
<path d="M11.646 13.5391H9.14591C7.90348 15.4921 7.15553 17.7886 7.0752 20.254H10.2817C10.3357 17.8121 10.826 15.5225 11.646 13.5391Z" fill="#FBE5C3"/>
<path d="M13.2021 30.7274C12.7768 30.1221 12.3904 29.4628 12.0469 28.7578H9.76562C10.1396 29.2523 10.5454 29.7191 10.9817 30.1554C12.2283 31.402 13.7215 32.4034 15.3808 33.0807C14.5789 32.4366 13.8475 31.643 13.2021 30.726V30.7274Z" fill="#FBE5C3"/>
<path d="M35.5058 20.7038H34.5792C34.5792 24.614 32.9974 28.1446 30.435 30.707C27.8711 33.2681 24.3405 34.8498 20.4304 34.8512C16.5202 34.8512 12.9896 33.2695 10.4258 30.707C7.86474 28.1432 6.28297 24.6126 6.28158 20.7038C6.28158 16.7937 7.86336 13.2631 10.4258 10.6992C12.9896 8.1368 16.5202 6.55637 20.4304 6.55499C24.3405 6.55499 27.8711 8.1368 30.435 10.6992C32.996 13.2631 34.5778 16.7937 34.5792 20.7038H36.4311C36.4311 11.8669 29.2687 4.70312 20.4304 4.70312C11.5934 4.70312 4.43107 11.8655 4.42969 20.7038C4.42969 29.5408 11.592 36.7031 20.4304 36.7031C29.2673 36.7031 36.4297 29.5408 36.4311 20.7038H35.5044H35.5058Z" fill="#E2B578"/>
</svg>
