<svg width="41" height="41" viewBox="0 0 41 41" fill="none" xmlns="http://www.w3.org/2000/svg">
<path d="M18.9618 8.1241C18.9618 10.5842 18.9618 12.8717 18.9618 15.375C17.6238 15.375 16.329 15.4182 14.9911 15.4182C12.6604 15.4613 10.5456 17.7488 10.2003 19.95C9.81184 22.4965 11.1929 24.0071 12.8762 25.3882C13.3078 25.7335 14.0415 25.8629 14.6458 25.9061C16.07 25.9924 17.4943 25.9492 18.9618 25.9492C18.9618 28.4525 18.9618 30.6537 18.9618 33.157C17.1059 33.157 15.25 33.0275 13.4373 33.2433C11.0635 33.5023 9.33708 32.7254 7.82647 30.9127C6.66115 29.4884 5.23682 28.2367 3.89885 26.9419C3.20829 26.2945 2.90619 25.604 2.94935 24.6976C2.99251 22.0649 2.99251 19.3889 2.94935 16.713C2.94935 15.8498 3.20831 15.2024 3.81255 14.6413C5.7116 12.7854 7.56748 10.8863 9.46653 9.03045C9.85497 8.64201 10.4161 8.2104 10.8908 8.2104C13.5668 8.08092 16.1995 8.1241 18.9618 8.1241Z" fill="#E2B578"/>
<path d="M22.9326 33.1609C22.9326 30.7439 22.9326 28.5428 22.9326 26.0826C24.1843 26.0395 25.4359 25.9963 26.7307 25.9531C29.4066 25.91 31.392 23.752 31.6941 21.1623C31.9962 18.6591 30.6151 17.2779 29.0182 15.94C28.6298 15.5947 27.9823 15.5084 27.4212 15.4652C25.9969 15.4221 24.5727 15.4652 22.9758 15.4652C22.9758 13.0051 22.9758 10.6744 22.9758 8.12798C25.6949 8.12798 28.3276 8.08481 31.0036 8.17113C31.4783 8.17113 32.0394 8.60275 32.4279 8.99119C34.3269 10.8471 36.1828 12.7461 38.0818 14.602C38.6861 15.2063 38.945 15.8536 38.945 16.6737C38.9019 19.3496 38.9019 21.9824 38.945 24.6583C38.945 25.5215 38.7292 26.1258 38.0818 26.7732C36.1828 28.6291 34.3269 30.5281 32.4279 32.384C32.0826 32.7293 31.6078 33.0746 31.1762 33.1178C28.5003 33.1609 25.7812 33.1609 22.9326 33.1609Z" fill="#E2B578"/>
<path fill-rule="evenodd" clip-rule="evenodd" d="M15.9453 16.7031C13.7362 16.7031 11.9453 18.494 11.9453 20.7031C11.9453 22.9123 13.7362 24.7031 15.9453 24.7031H25.9453C28.1545 24.7031 29.9453 22.9123 29.9453 20.7031C29.9453 18.494 28.1545 16.7031 25.9453 16.7031H15.9453ZM20.9453 23.7031C22.6022 23.7031 23.9453 22.36 23.9453 20.7031C23.9453 19.0463 22.6022 17.7031 20.9453 17.7031C19.2885 17.7031 17.9453 19.0463 17.9453 20.7031C17.9453 22.36 19.2885 23.7031 20.9453 23.7031Z" fill="#FBE5C3"/>
<circle cx="20.9453" cy="20.7061" r="1.9873" fill="#FBE5C3"/>
</svg>
