<svg width="41" height="41" viewBox="0 0 41 41" fill="none" xmlns="http://www.w3.org/2000/svg">
<path d="M10.9375 32.9089C20.5826 32.1524 24.2389 28.5591 25.3736 18.9141C29.0299 20.364 31.3624 24.3985 30.9841 28.6852C30.6059 33.4132 27.0126 37.5738 22.5998 38.4564C17.6827 39.465 13.396 37.4477 10.9375 32.9089Z" fill="#FBE5C3"/>
<path d="M32.8749 29.1153C31.9923 19.7855 27.2643 15.4357 18.0605 15.4987C19.0692 11.8424 23.1668 9.32084 27.8317 9.50996C32.6857 9.69908 36.7833 13.2293 37.7289 18.0203C38.7375 22.7483 36.7203 27.2241 32.8749 29.1153Z" fill="#E2B578"/>
<path d="M7.84843 11.0781C7.53324 19.2102 11.3157 25.3251 21.5281 26.1446C19.6369 29.864 15.2871 31.6921 10.6222 30.8726C6.52462 30.1161 2.93139 26.4598 2.30099 22.4253C1.60756 17.9494 3.56174 12.402 7.84843 11.0781Z" fill="#E2B578"/>
<path d="M29.0928 7.80698C20.5825 7.74394 14.5306 12.9762 14.7828 22.3061C11.3156 20.8562 9.1092 16.8847 9.4244 12.661C9.80263 7.80699 13.0807 4.15069 17.9347 3.01598C22.5366 1.9443 26.6343 3.64636 29.0928 7.80698Z" fill="#FBE5C3"/>
<path d="M20.1211 23.7026C18.4462 23.7335 17.1062 22.4348 17.0757 20.765C17.0453 19.1261 18.3852 17.7346 20.0298 17.7037C21.7048 17.6727 23.0447 18.9715 23.0752 20.6413C23.0752 22.2802 21.7657 23.6717 20.1211 23.7026Z" fill="#FBE5C3"/>
</svg>
