<svg width="41" height="41" viewBox="0 0 41 41" fill="none" xmlns="http://www.w3.org/2000/svg">
<path d="M20.6631 8.94877C19.763 8.94877 19.033 9.6788 19.033 10.5789C19.033 11.4789 19.763 12.209 20.6631 12.209C21.5632 12.209 22.2932 11.4789 22.2932 10.5789C22.2932 9.6788 21.5632 8.94877 20.6631 8.94877ZM20.6631 29.4495C19.763 29.4495 19.033 30.1795 19.033 31.0796C19.033 31.9796 19.763 32.7097 20.6631 32.7097C21.5632 32.7097 22.2932 31.9796 22.2932 31.0796C22.2932 30.1795 21.5632 29.4495 20.6631 29.4495ZM32.5427 20.8284C32.5427 19.9283 31.8127 19.1983 30.9126 19.1983C30.0125 19.1983 29.2825 19.9283 29.2825 20.8284C29.2825 21.7284 30.0125 22.4585 30.9126 22.4585C31.8127 22.4585 32.5427 21.7284 32.5427 20.8284ZM12.042 20.8284C12.042 19.9283 11.312 19.1983 10.4119 19.1983C9.51181 19.1983 8.78178 19.9283 8.78178 20.8284C8.78178 21.7284 9.51181 22.4585 10.4119 22.4585C11.312 22.4585 12.042 21.7284 12.042 20.8284ZM36.0691 20.8284H35.303C35.303 24.8735 33.6661 28.5288 31.0156 31.1792C28.3635 33.8296 24.7083 35.4666 20.6631 35.4683C16.6179 35.4683 12.9627 33.8313 10.3105 31.1792C7.66012 28.5271 6.02316 24.8718 6.02316 20.8284C6.02316 16.7832 7.66012 13.1279 10.3105 10.4758C12.9627 7.8254 16.6179 6.18844 20.6631 6.18672C24.7083 6.18672 28.3635 7.82368 31.0156 10.4758C33.6661 13.1279 35.303 16.7832 35.303 20.8284H36.8335C36.8335 11.8963 29.5934 4.65625 20.6614 4.65625C11.7293 4.65625 4.49098 11.8963 4.48926 20.8284C4.48926 29.7587 11.7293 36.9988 20.6614 36.9988C29.5934 36.9988 36.8318 29.7587 36.8335 20.8284H36.0674H36.0691Z" fill="#E2B578"/>
<path d="M20.7319 26.9639C24.188 26.9639 26.9912 24.1606 26.9912 20.7046C26.9912 17.2486 24.188 14.4453 20.7319 14.4453C17.2759 14.4453 14.4727 17.2486 14.4727 20.7046C14.4727 24.1606 17.2759 26.9639 20.7319 26.9639Z" fill="#FBE5C3"/>
</svg>
