<svg width="41" height="41" viewBox="0 0 41 41" fill="none" xmlns="http://www.w3.org/2000/svg">
<path d="M2.9502 20.4429C2.9502 10.6106 11.0137 2.70312 20.8981 2.70312C30.8344 2.70312 38.9499 10.8187 38.8979 20.755C38.8458 30.4833 30.6783 38.7029 21.0021 38.7029C10.9617 38.7549 2.9502 30.6394 2.9502 20.4429ZM36.9731 20.755C36.9731 11.8071 29.898 4.57595 21.1582 4.52392C12.1582 4.4719 4.87496 11.599 4.82294 20.5469C4.77092 29.4428 12.0021 36.726 21.0021 36.726C29.7939 36.83 36.9731 29.6509 36.9731 20.755Z" fill="#FBE5C3"/>
<path d="M24.5676 6.86396C24.1812 8.35441 23.9052 9.56884 23.5739 10.7833C23.2949 11.8065 23.0159 12.8688 22.7698 13.8714C22.6855 14.2151 22.7922 14.5771 23.0464 14.8235C24.2728 16.012 25.4546 17.1907 26.8777 18.6135C27.123 18.8588 27.4778 18.9599 27.8151 18.8792C29.8185 18.3997 32.2574 17.7932 34.8352 17.1867C36.1048 22.7068 34.7248 27.2334 30.9711 30.9871C27.2725 34.6304 22.746 35.9 17.3363 34.6304C17.9473 32.0843 18.5583 29.7261 19.0827 27.5558C19.1643 27.2183 19.0635 26.8628 18.8173 26.618C17.5442 25.352 16.3279 24.1746 14.9772 22.8308C14.7282 22.5831 14.3679 22.4828 14.0272 22.5686C11.9522 23.091 9.62077 23.695 7.28943 24.2525C5.52298 19.726 7.01353 14.0401 10.9881 10.3968C14.8522 6.80871 19.213 5.42872 24.5676 6.86396ZM20.9244 24.5837C23.022 24.5837 24.7333 22.8724 24.7885 20.7748C24.8437 18.6771 23.1323 16.9107 21.0899 16.8003C18.9922 16.7451 17.005 18.6771 17.0602 20.7748C17.0602 22.8172 18.8819 24.5837 20.9244 24.5837Z" fill="#E2B578"/>
<path d="M20.9614 23.3513C19.5778 23.3513 18.3438 22.1547 18.3064 20.7712C18.269 19.3503 19.6152 18.0415 21.0361 18.0789C22.4571 18.1163 23.5788 19.3129 23.5414 20.7712C23.5414 22.1921 22.3823 23.3513 20.9614 23.3513Z" fill="#FBE5C3"/>
</svg>
