<svg width="41" height="41" viewBox="0 0 41 41" fill="none" xmlns="http://www.w3.org/2000/svg">
<path d="M34.6138 16.1754C32.8446 15.8238 31.2087 16.4824 30.1746 17.6788C29.3918 18.5838 28.3025 19.1683 27.105 19.1682L26.3921 19.1681C24.2335 19.1679 22.4842 17.4185 22.4839 15.2599L22.4839 14.547C22.4837 13.3496 23.0673 12.2613 23.9723 11.4785C25.1696 10.4433 25.8293 8.80442 25.4746 7.03221C25.121 5.26702 23.7021 3.8321 21.9399 3.46545C18.9512 2.84334 16.3202 5.1078 16.3216 7.98632C16.3207 9.41906 16.9747 10.6977 18 11.5448C18.8932 12.2838 19.41 13.3832 19.4101 14.5427L19.4102 15.2595C19.4104 17.4182 17.6615 19.1671 15.5029 19.1669L14.79 19.1668C13.5925 19.1666 12.5041 18.5828 11.7201 17.6766C10.6847 16.481 9.04961 15.821 7.28049 16.1722C5.51438 16.5225 4.07779 17.939 3.70855 19.7021C3.08113 22.6927 5.3482 25.3282 8.22971 25.3285C9.66346 25.3287 10.942 24.6751 11.7879 23.6509C12.5267 22.7579 13.6259 22.2414 14.7854 22.2415L15.5032 22.2426C17.6619 22.2428 19.4112 23.9922 19.4114 26.1508L19.4115 26.8637C19.4117 28.0612 18.8281 29.1494 17.9221 29.9333C16.7257 30.9674 16.0681 32.6023 16.4188 34.3725C16.7694 36.1387 18.1863 37.5756 19.9495 37.9453C22.9402 38.5734 25.5762 36.3079 25.5748 33.4254C25.5747 31.9917 24.9217 30.714 23.8964 29.8669C23.0032 29.1279 22.4864 28.0285 22.4863 26.8691L22.4862 26.1522C22.486 23.9936 24.2349 22.2446 26.3935 22.2449L27.1104 22.245C28.2698 22.2451 29.3692 22.7619 30.1082 23.655C30.9554 24.6804 32.234 25.3323 33.6667 25.3335C36.5483 25.3338 38.8147 22.6989 38.1866 19.7082C37.8159 17.946 36.38 16.5281 34.6138 16.1774L34.6138 16.1754Z" fill="#E2B578"/>
<circle cx="26.7702" cy="14.875" r="2.49126" transform="rotate(-45 26.7702 14.875)" fill="#FBE5C3"/>
<circle cx="15.7068" cy="25.9453" r="2.49126" transform="rotate(-45 15.7068 25.9453)" fill="#FBE5C3"/>
</svg>
