<svg width="41" height="41" viewBox="0 0 41 41" fill="none" xmlns="http://www.w3.org/2000/svg">
<path fill-rule="evenodd" clip-rule="evenodd" d="M20.1165 30.3032C25.4189 30.3032 29.7173 26.0048 29.7173 20.7024C29.7173 15.4 25.4189 11.1016 20.1165 11.1016C14.8141 11.1016 10.5156 15.4 10.5156 20.7024C10.5156 26.0048 14.8141 30.3032 20.1165 30.3032ZM20.1159 27.2025C23.7056 27.2025 26.6156 24.2925 26.6156 20.7028C26.6156 17.1131 23.7056 14.2031 20.1159 14.2031C16.5262 14.2031 13.6162 17.1131 13.6162 20.7028C13.6162 24.2925 16.5262 27.2025 20.1159 27.2025Z" fill="#FBE5C3"/>
<circle cx="20.1165" cy="20.7044" r="3.99345" fill="#FBE5C3"/>
<path d="M38.8596 9.8859C38.2317 8.79828 34.606 9.60872 29.5508 11.7383C25.502 7.47244 18.924 6.36365 13.6061 9.43281C8.28933 12.5031 5.96048 18.755 7.63031 24.3934C3.25868 27.7064 0.74391 30.4416 1.37177 31.5292C1.99963 32.6168 5.62538 31.8064 10.6805 29.6768C14.7293 33.9416 21.3074 35.0514 26.6252 31.9812C31.942 28.9109 34.2709 22.659 32.601 17.0206C36.9727 13.7076 39.4885 10.9724 38.8607 9.88478L38.8596 9.8859ZM5.69106 29.0367C5.42722 28.5792 6.39129 27.4637 8.2103 25.9731C8.39732 26.3939 8.6066 26.8091 8.84149 27.2177C9.07749 27.6251 9.33243 28.0147 9.60294 28.3866C7.40321 29.217 5.95489 29.4942 5.69106 29.0367ZM10.1306 26.4729C9.85676 25.9987 9.62297 25.5133 9.4237 25.0202C9.21442 24.5014 9.0452 23.9749 8.91495 23.4427C8.44851 21.5369 8.48414 19.5709 8.97841 17.723C9.7432 14.8709 11.5912 12.315 14.3508 10.7219C17.1105 9.12891 20.2465 8.80717 23.0997 9.56973C24.9465 10.0651 26.6676 11.0169 28.0847 12.374C28.4799 12.7525 28.8517 13.1621 29.1957 13.603C29.523 14.0227 29.8269 14.4679 30.1007 14.941C30.3746 15.4153 30.6073 15.9006 30.8076 16.3938C28.412 18.2084 25.05 20.4137 21.2228 22.6234C17.3955 24.8332 13.8042 26.6421 11.0356 27.8099C10.7084 27.3902 10.4045 26.9449 10.1306 26.4718V26.4729ZM31.2529 23.6921C30.4881 26.5442 28.6402 29.1001 25.8805 30.6932C23.1208 32.2862 19.9837 32.6079 17.1317 31.8454C15.2848 31.35 13.5638 30.3982 12.1466 29.0412C15.119 27.712 18.4931 25.9876 21.9953 23.966C25.4987 21.9432 28.678 19.8838 31.3153 17.9735C31.7817 19.8793 31.7461 21.8453 31.2518 23.6932L31.2529 23.6921ZM32.0222 15.4431C31.8351 15.0223 31.6259 14.6071 31.391 14.1996C31.1561 13.7922 30.9 13.4026 30.6295 13.0308C32.8292 12.2003 34.2776 11.9231 34.5414 12.3806C34.8052 12.837 33.8412 13.9536 32.0222 15.4431Z" fill="#E2B578"/>
</svg>
