<svg width="41" height="41" viewBox="0 0 41 41" fill="none" xmlns="http://www.w3.org/2000/svg">
<rect x="9.38379" y="9.82812" width="4.55664" height="4.55664" rx="1" fill="#FBE5C3"/>
<rect x="9.38379" y="26.9609" width="4.55664" height="4.55664" rx="1" fill="#FBE5C3"/>
<path fill-rule="evenodd" clip-rule="evenodd" d="M34.8698 33.1377C34.6017 32.8696 34.4517 32.5076 34.4517 32.129V24.9947C34.4517 24.207 33.8141 23.5693 33.0264 23.5693H25.8921C25.5135 23.5693 25.1514 23.4194 24.8833 23.1513L23.4459 21.7138C22.8885 21.1579 22.8885 20.2551 23.4459 19.6977L24.8833 18.2588C25.1514 17.9922 25.5135 17.8407 25.8921 17.8407H33.0264C33.8141 17.8407 34.4517 17.203 34.4517 16.4154V9.27956C34.4517 8.90239 34.6017 8.53888 34.8698 8.27229L36.7283 6.41222C37.2858 5.85633 37.2858 4.95355 36.7283 4.39614C36.1724 3.84024 35.2697 3.84024 34.7123 4.39614L32.8537 6.25469C32.5856 6.52279 32.2236 6.67275 31.8464 6.67275H31.1572H24.7107C23.923 6.67275 23.2853 7.31043 23.2853 8.09808V15.2324C23.2853 15.611 23.1354 15.9731 22.8688 16.2412L21.4298 17.6786C20.8739 18.236 19.9711 18.236 19.4137 17.6786L17.9763 16.2412C17.7082 15.9746 17.5582 15.611 17.5582 15.2324V8.09808C17.5582 7.31043 16.9205 6.67275 16.1329 6.67275H8.99858C8.62142 6.67275 8.25789 6.52279 7.9913 6.25469L6.13123 4.39462C5.57382 3.83721 4.67258 3.83721 4.11517 4.39462C3.55927 4.95052 3.55927 5.8533 4.11517 6.41071L5.97521 8.27077C6.24332 8.53888 6.39327 8.90088 6.39327 9.27956V16.4139C6.39327 17.2015 7.03097 17.8392 7.81862 17.8392H14.9529C15.3316 17.8392 15.6936 17.9891 15.9602 18.2572L17.3992 19.6962C17.9551 20.2521 17.9551 21.1549 17.3992 21.7123L15.9602 23.1498C15.6921 23.4179 15.3301 23.5678 14.9529 23.5678H7.81862C7.03097 23.5678 6.39327 24.2055 6.39327 24.9931V31.4398V32.129C6.39327 32.5061 6.24332 32.8696 5.97521 33.1362L4.11668 34.9948C3.55927 35.5522 3.55927 36.4534 4.11668 37.0109C4.67409 37.5668 5.57534 37.5668 6.13275 37.0109L7.9913 35.1508C8.2594 34.8842 8.62142 34.7327 8.99858 34.7327H16.1344C16.922 34.7327 17.5597 34.095 17.5597 33.3074V26.1731C17.5597 25.7959 17.7097 25.4324 17.9778 25.1658L19.4152 23.7269C19.9727 23.171 20.8754 23.171 21.4313 23.7269L22.8688 25.1643C23.1369 25.4324 23.2868 25.7944 23.2868 26.1731V33.3074C23.2868 34.0935 23.926 34.7327 24.7122 34.7327H31.1588H31.848C32.2266 34.7327 32.5887 34.8827 32.8552 35.1508L34.7153 37.0109C35.2712 37.5668 36.174 37.5668 36.7314 37.0109C37.2888 36.4534 37.2888 35.5522 36.7314 34.9948L34.8728 33.1362L34.8698 33.1377ZM8.30566 9.75C8.30566 9.19772 8.75338 8.75 9.30566 8.75H14.0186C14.5708 8.75 15.0186 9.19772 15.0186 9.75V14.4629C15.0186 15.0152 14.5708 15.4629 14.0186 15.4629H9.30566C8.75338 15.4629 8.30566 15.0152 8.30566 14.4629V9.75ZM9.30566 25.8828C8.75338 25.8828 8.30566 26.3305 8.30566 26.8828V31.5957C8.30566 32.148 8.75338 32.5957 9.30566 32.5957H14.0186C14.5708 32.5957 15.0186 32.148 15.0186 31.5957V26.8828C15.0186 26.3305 14.5708 25.8828 14.0186 25.8828H9.30566ZM25.4414 9.75C25.4414 9.19772 25.8891 8.75 26.4414 8.75H31.1543C31.7066 8.75 32.1543 9.19772 32.1543 9.75V14.4629C32.1543 15.0152 31.7066 15.4629 31.1543 15.4629H26.4414C25.8891 15.4629 25.4414 15.0152 25.4414 14.4629V9.75ZM26.4414 25.8828C25.8891 25.8828 25.4414 26.3305 25.4414 26.8828V31.5957C25.4414 32.148 25.8891 32.5957 26.4414 32.5957H31.1543C31.7066 32.5957 32.1543 32.148 32.1543 31.5957V26.8828C32.1543 26.3305 31.7066 25.8828 31.1543 25.8828H26.4414Z" fill="#E2B578"/>
<rect x="26.5195" y="9.82812" width="4.55664" height="4.55664" rx="1" fill="#FBE5C3"/>
<rect x="26.5195" y="26.9609" width="4.55664" height="4.55664" rx="1" fill="#FBE5C3"/>
</svg>
